<?xml version="1.0" encoding="UTF-8" standalone="no"?>
<!-- Created with Inkscape (http://www.inkscape.org/) -->

<svg
   xmlns:dc="http://purl.org/dc/elements/1.1/"
   xmlns:cc="http://creativecommons.org/ns#"
   xmlns:rdf="http://www.w3.org/1999/02/22-rdf-syntax-ns#"
   xmlns:svg="http://www.w3.org/2000/svg"
   xmlns="http://www.w3.org/2000/svg"
   xmlns:sodipodi="http://sodipodi.sourceforge.net/DTD/sodipodi-0.dtd"
   xmlns:inkscape="http://www.inkscape.org/namespaces/inkscape"
   version="1.1"
   id="svg172"
   width="567"
   height="558"
   viewBox="0 0 567 558"
   sodipodi:docname="object5.svg"
   inkscape:version="0.92.3 (unknown)">
  <metadata
     id="metadata178">
    <rdf:RDF>
      <cc:Work
         rdf:about="">
        <dc:format>image/svg+xml</dc:format>
        <dc:type
           rdf:resource="http://purl.org/dc/dcmitype/StillImage" />
        <dc:title></dc:title>
      </cc:Work>
    </rdf:RDF>
  </metadata>
  <defs
     id="defs176" />
  <sodipodi:namedview
     pagecolor="#ffffff"
     bordercolor="#666666"
     borderopacity="1"
     objecttolerance="10"
     gridtolerance="10"
     guidetolerance="10"
     inkscape:pageopacity="0"
     inkscape:pageshadow="2"
     inkscape:window-width="1299"
     inkscape:window-height="713"
     id="namedview174"
     showgrid="false"
     inkscape:zoom="0.42293907"
     inkscape:cx="283.5"
     inkscape:cy="279"
     inkscape:window-x="67"
     inkscape:window-y="27"
     inkscape:window-maximized="1"
     inkscape:current-layer="svg172" />
  <path
     style="fill:#325091;stroke-width:0.73280722"
     d="m 252.14073,462.32279 c -38.8475,-3.75292 -76.61834,-18.56717 -109.21769,-42.83668 -10.15342,-7.559 -29.0152,-26.12018 -36.96595,-36.37682 -23.449537,-30.25043 -36.955757,-63.1469 -40.996797,-99.85404 -1.445268,-13.12819 -1.082531,-35.76483 0.783452,-48.89154 4.587725,-32.27355 18.556484,-64.56758 39.807415,-92.02981 8.34962,-10.79008 26.90668,-29.11672 37.37188,-36.90783 22.01777,-16.391767 47.37173,-28.980435 72.49258,-35.993833 37.78382,-10.548703 81.88825,-10.548703 119.67205,0 25.1209,7.013398 50.47484,19.602066 72.49261,35.993833 10.46522,7.79111 29.02224,26.11775 37.37191,36.90783 27.61055,35.68065 41.63656,76.14601 41.63656,120.12219 0,54.58998 -22.01374,104.74533 -62.80428,143.09103 -45.33318,42.61607 -107.01563,63.01915 -171.64374,56.77567 z m 35.31707,-41.81147 c 0.1529,-0.13337 -1.32933,-1.79546 -3.29383,-3.69353 -1.99663,-1.9292 -4.57843,-5.51665 -5.85452,-8.13517 -2.16266,-4.43761 -2.28358,-5.15797 -2.29753,-13.68809 l -0.0149,-9.00397 12.24513,-0.19853 c 12.80009,-0.20752 13.43766,-0.0669 13.46368,2.97094 0.0216,2.5443 2.42217,6.21816 5.12302,7.84092 2.48509,1.49318 3.60441,1.63206 13.15347,1.63206 14.07268,0 18.37205,-1.58608 21.32443,-7.86687 1.24717,-2.65318 1.38256,-5.08437 1.39731,-25.08766 0.0112,-15.58478 -0.22566,-22.14976 -0.80038,-22.14976 -0.44924,0 -1.76141,0.64986 -2.91585,1.44413 -1.15451,0.79428 -3.89016,2.24975 -6.07922,3.23439 -3.77795,1.69932 -4.66943,1.79062 -17.54908,1.7973 -7.46289,0.003 -15.3467,-0.35637 -17.51956,-0.80052 -15.22018,-3.11119 -25.98465,-14.52187 -30.15655,-31.96689 -1.26625,-5.29499 -1.37807,-9.61989 -1.37807,-53.3035 0,-43.12851 0.12181,-47.97553 1.31224,-52.22303 4.44976,-15.8766 15.61613,-26.92601 30.98295,-30.65855 3.70005,-0.89874 7.79427,-1.09399 19.07724,-0.9098 l 14.36611,0.23453 6.09629,2.92925 c 3.35295,1.61109 6.25837,2.77261 6.45652,2.58114 0.19816,-0.19146 0.36031,-1.40946 0.36031,-2.70666 0,-1.2972 0.33279,-2.55727 0.73955,-2.80016 0.40675,-0.24288 6.16278,-0.4416 12.79122,-0.4416 9.09549,0 12.20286,0.2304 12.66829,0.93934 0.90602,1.38023 0.7772,203.67087 -0.1336,209.75908 -0.40892,2.73343 -0.57203,5.13555 -0.36248,5.33804 1.40835,1.36072 21.67879,-13.33341 31.88093,-23.11054 19.68535,-18.86541 33.02065,-39.60208 41.24291,-64.13379 15.13288,-45.14973 7.62899,-93.8075 -20.63454,-133.80242 -5.03751,-7.12846 -16.08631,-20.12295 -17.10991,-20.12295 -0.42702,0 -0.70019,35.68151 -0.70718,92.38073 -0.008,50.8094 -0.28219,92.79295 -0.61312,93.29679 -0.46125,0.70213 -4.07095,0.87034 -15.458,0.72031 l -14.85629,-0.19573 -0.18884,-105.99971 -0.18884,-105.9997 -5.7901,-3.27978 c -9.39191,-5.31999 -22.622,-11.10523 -33.22455,-14.52836 -19.97246,-6.44828 -36.6528,-9.05546 -57.89717,-9.0495 -24.61998,0.007 -44.31779,3.6419 -67.09621,12.38176 -10.35597,3.9735 -21.02308,9.20323 -21.4393,10.51098 -0.20291,0.63752 5.21608,0.91456 21.58051,1.10325 20.71445,0.23884 22.06651,0.33734 25.98486,1.89319 8.82501,3.5041 17.78371,11.82501 22.32276,20.73353 4.64746,9.12116 4.45548,3.8317 4.46973,123.18686 0.0119,98.61892 -0.0981,108.91214 -1.16636,109.3082 -1.53702,0.56989 -25.92493,0.56989 -27.46203,0 -1.06027,-0.39313 -1.18037,-5.75147 -1.19065,-53.12343 -0.008,-28.9774 -0.28017,-53.09519 -0.60857,-53.59507 -0.46767,-0.7118 -6.97174,-0.868 -29.99549,-0.72032 l -29.39836,0.18856 -0.19122,53.26388 c -0.14904,41.51341 -0.39574,53.38938 -1.11826,53.83271 -0.50988,0.31286 -2.5206,0.5738 -4.46825,0.57986 -1.94765,0.006 -3.54119,0.27162 -3.54119,0.59014 0,1.48414 18.20497,13.52385 28.43427,18.8048 22.07396,11.3958 47.38638,18.44675 72.58279,20.21843 7.25787,0.51033 21.89655,0.25206 22.64333,-0.39951 z m -144.56818,-160.07861 -0.0333,-99.90156 -3.3785,3.60159 c -1.85817,1.98087 -5.83882,7.16716 -8.84586,11.52508 -17.39372,25.20752 -26.11692,51.27079 -27.01519,80.71619 -0.7962,26.09936 4.26978,48.72525 16.14075,72.08854 7.03115,13.83804 20.64381,33.3776 22.4866,32.27718 0.40333,-0.24084 0.66545,-40.9671 0.64561,-100.30702 z m 187.36758,61.55726 c 3.32104,-1.34666 8.42243,-6.59708 10.64093,-10.95179 l 1.85491,-3.64094 -0.20256,-46.18865 c -0.23319,-53.15468 0.48839,-48.40745 -7.99421,-52.59624 -4.69136,-2.31665 -4.85113,-2.34104 -15.34125,-2.34104 -14.5179,0 -18.54516,1.48385 -22.07405,8.13317 -2.57284,4.8479 -2.98489,13.0133 -2.70286,53.5579 0.23573,33.88084 0.42777,39.24931 1.51667,42.39483 2.1306,6.15509 6.82524,10.51605 12.84497,11.932 4.05448,0.95371 18.87737,0.747 21.45745,-0.29924 z m -97.85318,-81.89876 c 1.20288,-2.17154 0.5897,-69.22074 -0.6668,-72.91681 -1.2822,-3.77185 -4.93418,-7.55777 -8.18149,-8.48163 -1.74718,-0.49707 -10.00277,-0.69432 -22.98302,-0.54914 l -20.25646,0.22656 -2.02382,1.8008 c -1.11311,0.99043 -2.73309,3.25944 -3.59998,5.04222 -1.52732,3.14107 -1.5831,4.34168 -1.80154,38.7779 -0.1677,26.43567 -7.5e-4,35.79758 0.65042,36.55612 0.72743,0.84688 5.7192,1.01965 29.46059,1.01965 28.04794,0 28.60007,-0.0278 29.4021,-1.47567 z"
     id="path182"
     inkscape:connector-curvature="0" />
</svg>
